<svg width="26" height="26" viewBox="0 0 26 26" fill="none" xmlns="http://www.w3.org/2000/svg">
<path d="M13.2169 25.8519C6.37483 25.8519 0.808838 20.2446 0.808838 13.3519C0.808838 6.45909 6.37483 0.851868 13.2169 0.851868C20.059 0.851868 25.625 6.45909 25.625 13.3519C25.625 20.2446 20.059 25.8519 13.2169 25.8519ZM13.2169 2.41437C7.23005 2.41437 2.35985 7.32064 2.35985 13.3519C2.35985 19.3831 7.23005 24.2894 13.2169 24.2894C19.2038 24.2894 24.074 19.3831 24.074 13.3519C24.074 7.32064 19.2038 2.41437 13.2169 2.41437Z" fill="#008F02"/>
<path d="M19.3316 13.6019H7.27432C6.79892 13.6019 6.41309 13.2659 6.41309 12.8519C6.41309 12.4379 6.79892 12.1019 7.27432 12.1019H19.3316C19.807 12.1019 20.1929 12.4379 20.1929 12.8519C20.1929 13.2659 19.807 13.6019 19.3316 13.6019Z" fill="#008F02"/>
<path d="M13.3026 18.8519C12.8272 18.8519 12.4414 18.5159 12.4414 18.1019V7.60187C12.4414 7.18787 12.8272 6.85187 13.3026 6.85187C13.778 6.85187 14.1639 7.18787 14.1639 7.60187V18.1019C14.1639 18.5159 13.778 18.8519 13.3026 18.8519Z" fill="#008F02"/>
</svg>
