<svg width="24" height="24" viewBox="0 0 24 24" fill="none" xmlns="http://www.w3.org/2000/svg">
<path d="M12 24C5.38293 24 0 18.6171 0 12C0 5.38293 5.38293 0 12 0C18.6171 0 24 5.38293 24 12C24 18.6171 18.6171 24 12 24ZM12 1.5C6.21002 1.5 1.5 6.21002 1.5 12C1.5 17.79 6.21002 22.5 12 22.5C17.79 22.5 22.5 17.79 22.5 12C22.5 6.21002 17.79 1.5 12 1.5Z" fill="#008F02"/>
<path d="M17.25 12.75H6.75C6.336 12.75 6 12.414 6 12C6 11.586 6.336 11.25 6.75 11.25H17.25C17.664 11.25 18 11.586 18 12C18 12.414 17.664 12.75 17.25 12.75Z" fill="#008F02"/>
<path d="M12 18C11.586 18 11.25 17.664 11.25 17.25V6.75C11.25 6.336 11.586 6 12 6C12.414 6 12.75 6.336 12.75 6.75V17.25C12.75 17.664 12.414 18 12 18Z" fill="#008F02"/>
</svg>
