<svg width="24" height="24" viewBox="0 0 24 24" fill="none" xmlns="http://www.w3.org/2000/svg">
<g clip-path="url(#clip0_486_513)">
<path d="M15.3106 8.69519C15.0001 8.69519 14.7485 8.9468 14.7485 9.25725V19.8802C14.7485 20.1904 15.0001 20.4423 15.3106 20.4423C15.621 20.4423 15.8727 20.1904 15.8727 19.8802V9.25725C15.8727 8.9468 15.621 8.69519 15.3106 8.69519Z" fill="#008F02"/>
<path d="M8.67827 8.69519C8.36782 8.69519 8.11621 8.9468 8.11621 9.25725V19.8802C8.11621 20.1904 8.36782 20.4423 8.67827 20.4423C8.98872 20.4423 9.24033 20.1904 9.24033 19.8802V9.25725C9.24033 8.9468 8.98872 8.69519 8.67827 8.69519Z" fill="#008F02"/>
<path d="M3.8439 7.14503V20.993C3.8439 21.8115 4.14403 22.5801 4.66832 23.1317C5.19021 23.6847 5.91649 23.9987 6.67659 24H17.3109C18.0712 23.9987 18.7975 23.6847 19.3192 23.1317C19.8435 22.5801 20.1436 21.8115 20.1436 20.993V7.14503C21.1858 6.86839 21.8612 5.86152 21.7218 4.79207C21.5821 3.72284 20.6712 2.923 19.5928 2.92278H16.7151V2.22021C16.7183 1.62939 16.4847 1.06206 16.0665 0.644685C15.6482 0.227532 15.08 -0.00475635 14.4892 7.385e-05H9.4983C8.90748 -0.00475635 8.33927 0.227532 7.92102 0.644685C7.50277 1.06206 7.26917 1.62939 7.27246 2.22021V2.92278H4.39476C3.31631 2.923 2.40538 3.72284 2.26574 4.79207C2.12632 5.86152 2.80167 6.86839 3.8439 7.14503V7.14503ZM17.3109 22.8759H6.67659C5.7156 22.8759 4.96802 22.0504 4.96802 20.993V7.19443H19.0195V20.993C19.0195 22.0504 18.2719 22.8759 17.3109 22.8759ZM8.39658 2.22021C8.39285 1.92754 8.50789 1.64585 8.71559 1.43925C8.92307 1.23265 9.20542 1.11914 9.4983 1.12419H14.4892C14.7821 1.11914 15.0644 1.23265 15.2719 1.43925C15.4796 1.64563 15.5947 1.92754 15.5909 2.22021V2.92278H8.39658V2.22021ZM4.39476 4.0469H19.5928C20.1515 4.0469 20.6045 4.49984 20.6045 5.05861C20.6045 5.61737 20.1515 6.07031 19.5928 6.07031H4.39476C3.83599 6.07031 3.38305 5.61737 3.38305 5.05861C3.38305 4.49984 3.83599 4.0469 4.39476 4.0469V4.0469Z" fill="#008F02"/>
<path d="M11.9942 8.69519C11.6837 8.69519 11.4321 8.9468 11.4321 9.25725V19.8802C11.4321 20.1904 11.6837 20.4423 11.9942 20.4423C12.3046 20.4423 12.5562 20.1904 12.5562 19.8802V9.25725C12.5562 8.9468 12.3046 8.69519 11.9942 8.69519Z" fill="#008F02"/>
</g>
<defs>
<clipPath id="clip0_486_513">
<rect width="24" height="24" fill="white"/>
</clipPath>
</defs>
</svg>
