<svg width="24" height="24" viewBox="0 0 24 24" fill="none" xmlns="http://www.w3.org/2000/svg">
<g clip-path="url(#clip0_486_519)">
<path d="M22.1511 15.0765C21.8209 15.0765 21.5533 15.3441 21.5533 15.6743V20.9814C21.5522 21.9714 20.7501 22.7736 19.7602 22.7746H2.98862C1.99864 22.7736 1.19662 21.9714 1.19545 20.9814V5.40531C1.19662 4.41556 1.99864 3.6133 2.98862 3.61214H8.29576C8.62591 3.61214 8.89348 3.34456 8.89348 3.01441C8.89348 2.6845 8.62591 2.41669 8.29576 2.41669H2.98862C1.33881 2.41855 0.00186789 3.7555 0 5.40531V20.9816C0.00186789 22.6314 1.33881 23.9684 2.98862 23.9703H19.7602C21.41 23.9684 22.7469 22.6314 22.7488 20.9816V15.6743C22.7488 15.3441 22.4812 15.0765 22.1511 15.0765V15.0765Z" fill="#008F02"/>
<path d="M22.5116 0.878905C21.4611 -0.171549 19.7581 -0.171549 18.7076 0.878905L8.04384 11.5427C7.97076 11.6158 7.91799 11.7064 7.89044 11.8058L6.48812 16.8685C6.43045 17.0761 6.48905 17.2983 6.64129 17.4508C6.79375 17.603 7.01603 17.6617 7.2236 17.6042L12.2863 16.2017C12.3857 16.1741 12.4763 16.1213 12.5494 16.0483L23.213 5.38425C24.2618 4.3331 24.2618 2.63145 23.213 1.5803L22.5116 0.878905ZM9.34622 11.9312L18.0737 3.20349L20.8884 6.01817L12.1607 14.7459L9.34622 11.9312ZM8.78399 13.0594L11.0327 15.3083L7.92219 16.1701L8.78399 13.0594ZM22.3677 4.53903L21.7338 5.17295L18.9189 2.35804L19.5531 1.72412C20.1366 1.14064 21.0826 1.14064 21.6661 1.72412L22.3677 2.42552C22.9503 3.0097 22.9503 3.95508 22.3677 4.53903V4.53903Z" fill="#008F02"/>
</g>
<defs>
<clipPath id="clip0_486_519">
<rect width="24" height="24" fill="white"/>
</clipPath>
</defs>
</svg>
