<svg width="16" height="10" viewBox="0 0 16 10" fill="none" xmlns="http://www.w3.org/2000/svg">
<path d="M15.941 4.81054C15.815 4.6272 12.7869 0.33313 8.00021 0.33313C3.8928 0.33313 0.23274 4.60254 0.0787376 4.78454C-0.0259203 4.90854 -0.0259203 5.09055 0.0787376 5.21521C0.23274 5.39721 3.8928 9.66662 8.00021 9.66662C12.1076 9.66662 15.7676 5.39721 15.9216 5.21521C16.0183 5.10055 16.027 4.93454 15.941 4.81054ZM8.00021 8.99995C4.7075 8.99995 1.57676 5.8599 0.781436 4.99989C1.57545 4.13922 4.70284 0.999828 8.00021 0.999828C11.8529 0.999828 14.5723 4.13522 15.2363 4.98189C14.4696 5.81456 11.3209 8.99995 8.00021 8.99995Z" fill="#777777"/>
<path d="M7.9999 2.33319C6.52921 2.33319 5.33319 3.52921 5.33319 4.9999C5.33319 6.47058 6.52921 7.6666 7.9999 7.6666C9.47058 7.6666 10.6666 6.47058 10.6666 4.9999C10.6666 3.52921 9.47058 2.33319 7.9999 2.33319ZM7.9999 6.99996C6.89722 6.99996 5.99986 6.1026 5.99986 4.99993C5.99986 3.89725 6.89722 2.99989 7.9999 2.99989C9.10257 2.99989 9.99993 3.89725 9.99993 4.99993C9.99993 6.1026 9.10257 6.99996 7.9999 6.99996Z" fill="#777777"/>
</svg>
