<svg width="16" height="12" viewBox="0 0 16 12" fill="none" xmlns="http://www.w3.org/2000/svg">
<path d="M9.88601 4.11429C9.75601 3.98428 9.54467 3.98428 9.41467 4.11429C9.28467 4.24429 9.28467 4.4563 9.41467 4.58565C9.79201 4.96301 10.0007 5.46503 10.0007 5.9997C10.0007 7.1024 9.10333 7.99978 8.00067 7.99978C7.46601 7.99978 6.96401 7.79177 6.58667 7.41375C6.45667 7.28375 6.24532 7.28375 6.11532 7.41375C5.98532 7.5431 5.98532 7.75511 6.11532 7.88512C6.61798 8.38913 7.28798 8.66649 8.00067 8.66649C9.47133 8.66649 10.6673 7.47044 10.6673 5.99973C10.6673 5.28699 10.39 4.61696 9.88601 4.11429Z" fill="#777777"/>
<path d="M8.46512 3.37864C8.31378 3.35199 8.15912 3.33264 8.00046 3.33264C6.5298 3.33264 5.3338 4.52868 5.3338 5.99939C5.3338 6.15805 5.35314 6.31274 5.38046 6.46406C5.40911 6.62541 5.5498 6.73941 5.7078 6.73941C5.72715 6.73941 5.74646 6.73807 5.76646 6.73407C5.94712 6.70207 6.06846 6.52872 6.03646 6.34806C6.0158 6.23471 6.00046 6.11939 6.00046 5.99939C6.00046 4.89669 6.89781 3.99932 8.00046 3.99932C8.12046 3.99932 8.23581 4.01466 8.34912 4.03467C8.52647 4.07067 8.70312 3.94532 8.73512 3.76466C8.76712 3.58399 8.64581 3.41064 8.46512 3.37864Z" fill="#777777"/>
<path d="M15.921 5.78442C15.8456 5.69508 14.0423 3.59035 11.555 2.30165C11.3936 2.21699 11.1903 2.28099 11.1056 2.445C11.021 2.60835 11.085 2.80967 11.249 2.89436C13.165 3.88639 14.6956 5.43444 15.219 5.99981C14.4243 6.86049 11.297 9.99994 8.00033 9.99994C6.88168 9.99994 5.75434 9.72993 4.64834 9.19657C4.48434 9.11591 4.28368 9.18591 4.20368 9.35192C4.12303 9.51727 4.19303 9.71659 4.35903 9.79659C5.55568 10.3746 6.78102 10.6666 8.00037 10.6666C12.1077 10.6666 15.7677 6.39713 15.9217 6.21513C16.027 6.09109 16.0263 5.90908 15.921 5.78442Z" fill="#777777"/>
<path d="M10.1874 1.71672C9.42871 1.46136 8.69272 1.3327 8.00003 1.3327C3.89269 1.3327 0.232701 5.60219 0.0787014 5.7842C-0.0186422 5.89886 -0.0266421 6.06555 0.0600452 6.19021C0.106045 6.25621 1.20804 7.82092 3.11804 9.08965C3.1747 9.12765 3.23804 9.14565 3.30204 9.14565C3.40938 9.14565 3.51538 9.09365 3.57938 8.99565C3.68138 8.84299 3.63938 8.63564 3.48604 8.53429C2.08339 7.6016 1.12339 6.47556 0.764044 6.01755C1.53139 5.18418 4.67938 1.99941 8.00003 1.99941C8.62069 1.99941 9.28537 2.11676 9.97468 2.34808C10.1493 2.41074 10.3387 2.31408 10.3967 2.13873C10.4554 1.96407 10.362 1.77541 10.1874 1.71672Z" fill="#777777"/>
<path d="M13.9023 0.0975033C13.7723 -0.0325011 13.561 -0.0325011 13.431 0.0975033L2.09768 11.4312C1.96768 11.5612 1.96768 11.7726 2.09768 11.9026C2.16303 11.9672 2.24834 11.9999 2.33368 11.9999C2.41903 11.9999 2.50434 11.9673 2.56903 11.9026L13.9023 0.568863C14.0323 0.438859 14.0323 0.227508 13.9023 0.0975033Z" fill="#777777"/>
</svg>
