<svg width="154" height="50" viewBox="0 0 154 50" fill="none" xmlns="http://www.w3.org/2000/svg">
<path fill-rule="evenodd" clip-rule="evenodd" d="M13.5328 2.42749C4.10204 9.08934 -2.40662 23.3232 0.848958 34.8648C2.14646 39.4641 4.84552 43.4551 9.23306 45.9953C21.0158 52.817 36.794 47.5256 40.4606 35.1464C43.888 23.5747 37.2902 9.14125 28.0868 2.66546C23.2737 -0.721329 18.339 -0.967682 13.5328 2.42749ZM7.67967 24.9289V31.9783H9.83893C10.8227 31.9783 11.6226 31.6495 12.2444 30.9912C12.8634 30.3358 13.1744 29.4871 13.1744 28.448C13.1744 27.4116 12.8634 26.5658 12.2444 25.9104C11.6226 25.2551 10.8227 24.9289 9.83893 24.9289H7.67967ZM4.7797 34.3688V22.5386H9.12707C10.3704 22.5386 11.3345 22.6337 12.0185 22.8271C12.7024 23.0178 13.3328 23.3324 13.9062 23.774C14.6469 24.3428 15.2065 25.0241 15.5881 25.815C15.9697 26.6061 16.1589 27.4864 16.1589 28.448C16.1589 29.5044 15.9273 30.46 15.4639 31.3204C15.0002 32.1805 14.3277 32.8966 13.4513 33.4711C12.9541 33.7943 12.4054 34.0223 11.8033 34.161C11.2014 34.2995 10.3083 34.3688 9.12707 34.3688H4.7797ZM17.3636 34.3688V22.5386H25.1133V24.721H20.2635V27.1286H24.893V29.3284H20.2635V32.1518H25.2492V34.3688H17.3636ZM31.4079 34.4726L26.1506 22.5386H29.2543L32.1175 29.4149L35.1727 22.5386H38.3104L32.6629 34.4726H31.4079Z" fill="#008F02"/>
<path fill-rule="evenodd" clip-rule="evenodd" d="M51.4276 22.6864V10.4541H54.4122V22.6864H51.4276ZM59.6157 15.0001V22.6864H56.7499V10.4541H59.2905L65.5002 17.7464V10.4541H68.3662V22.6864H66.0966L59.6157 15.0001ZM80.7771 21.6597C80.0818 22.0806 79.3696 22.3908 78.6403 22.5969C77.911 22.7998 77.145 22.9015 76.3454 22.9015C75.4408 22.9015 74.607 22.7552 73.8495 22.4655C73.0892 22.1731 72.4252 21.7433 71.857 21.1792C71.2719 20.5909 70.8254 19.9014 70.5201 19.1165C70.212 18.3284 70.0593 17.4838 70.0593 16.5793C70.0593 14.6779 70.6586 13.1465 71.8598 11.9824C73.061 10.8214 74.6466 10.239 76.6164 10.239C77.3234 10.239 78.0128 10.3197 78.6828 10.4838C79.3556 10.648 80.0196 10.899 80.6753 11.2363V14.1078C80.0365 13.6688 79.3921 13.3405 78.7478 13.1257C78.1006 12.9078 77.456 12.8004 76.8088 12.8004C75.6415 12.8004 74.7202 13.1346 74.0501 13.8062C73.3805 14.4778 73.0442 15.4001 73.0442 16.5793C73.0442 17.7226 73.3637 18.636 74.0051 19.3165C74.6438 19.9999 75.5058 20.3401 76.5884 20.3401C77.2835 20.3401 77.9817 20.212 78.6828 19.9523C79.3835 19.6927 80.0818 19.3075 80.7771 18.8002V21.6597ZM93.363 10.4541V17.4567C93.363 19.1701 92.8825 20.5044 91.9187 21.4626C90.9548 22.4208 89.6094 22.9015 87.8825 22.9015C86.1586 22.9015 84.8158 22.4208 83.8521 21.4626C82.8885 20.5044 82.408 19.1701 82.408 17.4567V10.4541H85.3248V17.3344C85.3248 18.3076 85.5451 19.0509 85.9862 19.5672C86.4268 20.0835 87.0686 20.3401 87.9053 20.3401C88.7391 20.3401 89.375 20.0835 89.8104 19.5701C90.2453 19.0598 90.463 18.3136 90.463 17.3344V10.4541H93.363ZM98.4843 20.4478H100.163C100.915 20.4478 101.449 20.3372 101.769 20.1165C102.088 19.8925 102.249 19.5255 102.249 19.0148C102.249 18.4896 102.08 18.1015 101.74 17.8508C101.401 17.6 100.87 17.4749 100.146 17.4749H98.4843V20.4478ZM99.9825 15.2898C100.505 15.2898 100.895 15.1853 101.153 14.9733C101.41 14.7645 101.537 14.4481 101.537 14.0213C101.537 13.5495 101.407 13.1971 101.147 12.9675C100.89 12.7376 100.5 12.621 99.9825 12.621H98.4843V15.2898H99.9825ZM95.5675 22.6864V10.4541H99.8411C101.365 10.4541 102.515 10.7167 103.289 11.2452C104.067 11.7734 104.454 12.5556 104.454 13.5942C104.454 14.1346 104.324 14.6093 104.061 15.0182C103.798 15.4271 103.414 15.7495 102.913 15.9881C103.722 16.257 104.327 16.654 104.722 17.1822C105.121 17.7104 105.319 18.3763 105.319 19.1791C105.319 20.3523 104.937 21.2297 104.177 21.8118C103.417 22.3938 102.272 22.6864 100.743 22.6864H95.5675ZM110.403 18.2089H113.823L112.201 13.5526L110.403 18.2089ZM105.553 22.6864L110.604 10.4541H113.948L118.459 22.6864H115.386L114.558 20.3044H109.567L108.64 22.6864H105.553ZM121.146 22.6864V12.7287H117.314V10.4541H128.032V12.7287H124.199V22.6864H121.146ZM131.695 16.5793C131.695 17.6688 132.006 18.5672 132.625 19.2686C133.246 19.9702 134.038 20.3223 134.999 20.3223C135.963 20.3223 136.757 19.9702 137.379 19.2686C137.998 18.5672 138.308 17.6688 138.308 16.5793C138.308 15.4837 137.998 14.5822 137.379 13.8779C136.757 13.1703 135.963 12.8182 134.999 12.8182C134.038 12.8182 133.246 13.1703 132.625 13.8779C132.006 14.5822 131.695 15.4837 131.695 16.5793ZM128.71 16.5793C128.71 15.6689 128.863 14.83 129.165 14.0569C129.47 13.284 129.922 12.5943 130.525 11.9884C131.11 11.4064 131.774 10.9704 132.517 10.687C133.261 10.4002 134.086 10.2572 134.999 10.2572C135.92 10.2572 136.754 10.4003 137.5 10.6899C138.246 10.9796 138.91 11.4123 139.495 11.9884C140.092 12.5943 140.544 13.284 140.849 14.0569C141.157 14.83 141.31 15.6689 141.31 16.5793C141.31 17.4838 141.157 18.3195 140.849 19.0925C140.544 19.8658 140.092 20.5492 139.495 21.1432C138.905 21.7252 138.235 22.1642 137.486 22.4595C136.74 22.7552 135.909 22.9015 134.999 22.9015C134.091 22.9015 133.269 22.7552 132.525 22.4655C131.782 22.1731 131.115 21.7312 130.525 21.1432C129.928 20.5492 129.476 19.8658 129.171 19.0925C128.863 18.3195 128.71 17.4838 128.71 16.5793ZM147.367 15.4688C147.904 15.4688 148.303 15.3495 148.565 15.1136C148.828 14.8778 148.958 14.5197 148.958 14.0361C148.958 13.5763 148.823 13.2242 148.548 12.9824C148.274 12.7406 147.881 12.621 147.367 12.621H145.974V15.4688H147.367ZM143.074 22.6864V10.4541H147.35C148.922 10.4541 150.083 10.7437 150.835 11.3198C151.584 11.8959 151.96 12.7914 151.96 14.0031C151.96 14.6779 151.793 15.257 151.462 15.7373C151.132 16.218 150.626 16.6239 149.942 16.9552C150.23 17.0659 150.487 17.2509 150.716 17.5105C150.945 17.7702 151.143 18.0986 151.315 18.4956L153.164 22.6864H149.894L148.418 19.1612C148.181 18.6 147.91 18.2151 147.607 18.006C147.302 17.794 146.872 17.6896 146.313 17.6896C146.271 17.6896 146.211 17.6929 146.14 17.6985C146.067 17.7045 146.013 17.7074 145.974 17.7074V22.6864H143.074Z" fill="#008F02"/>
<path d="M60.9765 36.1636H57.3491V46H54.4355V36.1636H50.8745V33.9141H60.9765V36.1636ZM70.5589 40.8784H65.9769V43.7588H71.389V46H63.0633V33.9141H71.4056V36.1636H65.9769V38.7119H70.5589V40.8784ZM79.6599 42.7876C79.6599 42.3615 79.5077 42.0295 79.2034 41.7915C78.9045 41.5535 78.376 41.3073 77.6179 41.0527C76.8598 40.7982 76.24 40.5519 75.7585 40.314C74.1925 39.5448 73.4094 38.4878 73.4094 37.1431C73.4094 36.4735 73.6031 35.8841 73.9905 35.375C74.3834 34.8604 74.9368 34.4619 75.6506 34.1797C76.3645 33.8919 77.1669 33.748 78.0578 33.748C78.9267 33.748 79.7042 33.903 80.3904 34.2129C81.0821 34.5228 81.6189 34.9655 82.0007 35.541C82.3826 36.111 82.5735 36.764 82.5735 37.5H79.6682C79.6682 37.0075 79.516 36.6257 79.2117 36.3545C78.9128 36.0833 78.5061 35.9478 77.9914 35.9478C77.4713 35.9478 77.059 36.064 76.7546 36.2964C76.4558 36.5233 76.3064 36.8138 76.3064 37.168C76.3064 37.4779 76.4724 37.7601 76.8044 38.0146C77.1365 38.2637 77.7203 38.5238 78.5559 38.7949C79.3915 39.0605 80.0777 39.3483 80.6145 39.6582C81.9205 40.4108 82.5735 41.4484 82.5735 42.771C82.5735 43.828 82.175 44.658 81.3782 45.2612C80.5813 45.8644 79.4884 46.166 78.0994 46.166C77.1199 46.166 76.2317 45.9917 75.4348 45.6431C74.6435 45.2889 74.0458 44.8075 73.6418 44.1987C73.2434 43.5845 73.0442 42.8789 73.0442 42.082H75.9661C75.9661 42.7295 76.1321 43.2082 76.4641 43.5181C76.8017 43.8224 77.3467 43.9746 78.0994 43.9746C78.5808 43.9746 78.9599 43.8722 79.2366 43.6675C79.5188 43.4572 79.6599 43.1639 79.6599 42.7876ZM94.4054 36.1636H90.778V46H87.8644V36.1636H84.3034V33.9141H94.4054V36.1636ZM99.5967 46H96.6914V33.9141H99.5967V46ZM112.566 46H109.669L105.386 38.4795V46H102.472V33.9141H105.386L109.661 41.4346V33.9141H112.566V46ZM125.153 44.5059C124.705 45.0039 124.049 45.4051 123.186 45.7095C122.323 46.0138 121.376 46.166 120.347 46.166C118.764 46.166 117.5 45.6818 116.554 44.7134C115.607 43.745 115.101 42.3975 115.035 40.6709L115.026 39.625C115.026 38.4352 115.236 37.3976 115.657 36.5122C116.078 35.6213 116.678 34.9378 117.458 34.4619C118.244 33.9805 119.152 33.7397 120.181 33.7397C121.686 33.7397 122.854 34.0856 123.684 34.7773C124.52 35.4635 125.007 36.4901 125.145 37.8569H122.339C122.24 37.1818 122.024 36.7004 121.692 36.4126C121.36 36.1248 120.889 35.981 120.281 35.981C119.55 35.981 118.986 36.2909 118.587 36.9106C118.189 37.5304 117.987 38.4159 117.981 39.5669V40.2974C117.981 41.5037 118.186 42.4113 118.596 43.02C119.011 43.6232 119.661 43.9248 120.546 43.9248C121.304 43.9248 121.869 43.756 122.24 43.4185V41.5425H120.214V39.542H125.153V44.5059Z" fill="white"/>
</svg>
