<svg width="21" height="13" viewBox="0 0 21 13" fill="none" xmlns="http://www.w3.org/2000/svg">
<path d="M4.66288 12.0975C4.66288 12.2503 4.5881 12.3968 4.45499 12.5048C4.32188 12.6128 4.14135 12.6735 3.9531 12.6735C3.76486 12.6735 3.58432 12.6128 3.45121 12.5048C3.3181 12.3968 3.24332 12.2503 3.24332 12.0975V1.96744L1.61652 3.28885C1.55052 3.34241 1.47218 3.38489 1.38596 3.41388C1.29973 3.44286 1.20732 3.45778 1.11399 3.45778C1.02067 3.45778 0.928254 3.44286 0.842031 3.41388C0.755808 3.38489 0.677464 3.34241 0.611472 3.28885C0.54548 3.2353 0.493132 3.17171 0.457417 3.10174C0.421702 3.03176 0.40332 2.95676 0.40332 2.88102C0.40332 2.80528 0.421702 2.73028 0.457417 2.66031C0.493132 2.59033 0.54548 2.52675 0.611472 2.47319L3.45058 0.170229L3.46052 0.162164C3.59396 0.0569848 3.7731 -0.00127284 3.95911 2.11022e-05C4.14512 0.00131504 4.32301 0.0620561 4.4542 0.169076L7.29331 2.47319C7.3593 2.52668 7.41167 2.59018 7.44742 2.66009C7.48317 2.72999 7.50161 2.80493 7.50167 2.88062C7.50174 2.9563 7.48343 3.03126 7.44781 3.10121C7.41218 3.17115 7.35992 3.23472 7.29402 3.28828C7.22812 3.34183 7.14987 3.38433 7.06374 3.41334C6.9776 3.44236 6.88526 3.45732 6.792 3.45737C6.69874 3.45743 6.60638 3.44257 6.52019 3.41366C6.43401 3.38474 6.35568 3.34233 6.28969 3.28885L4.66288 1.96744V12.0975ZM9.63132 1.72896C9.63132 1.57619 9.7061 1.42968 9.83921 1.32165C9.97232 1.21362 10.1529 1.15293 10.3411 1.15293H20.278C20.4662 1.15293 20.6468 1.21362 20.7799 1.32165C20.913 1.42968 20.9877 1.57619 20.9877 1.72896C20.9877 1.88174 20.913 2.02825 20.7799 2.13628C20.6468 2.2443 20.4662 2.30499 20.278 2.30499H10.3411C10.1529 2.30499 9.97232 2.2443 9.83921 2.13628C9.7061 2.02825 9.63132 1.88174 9.63132 1.72896ZM10.3411 4.60911C10.1529 4.60911 9.97232 4.6698 9.83921 4.77783C9.7061 4.88585 9.63132 5.03237 9.63132 5.18514C9.63132 5.33791 9.7061 5.48443 9.83921 5.59245C9.97232 5.70048 10.1529 5.76117 10.3411 5.76117H17.4389C17.6271 5.76117 17.8076 5.70048 17.9408 5.59245C18.0739 5.48443 18.1486 5.33791 18.1486 5.18514C18.1486 5.03237 18.0739 4.88585 17.9408 4.77783C17.8076 4.6698 17.6271 4.60911 17.4389 4.60911H10.3411ZM10.3411 8.06529C10.1529 8.06529 9.97232 8.12598 9.83921 8.234C9.7061 8.34203 9.63132 8.48854 9.63132 8.64132C9.63132 8.79409 9.7061 8.94061 9.83921 9.04863C9.97232 9.15666 10.1529 9.21735 10.3411 9.21735H14.5998C14.788 9.21735 14.9685 9.15666 15.1016 9.04863C15.2348 8.94061 15.3095 8.79409 15.3095 8.64132C15.3095 8.48854 15.2348 8.34203 15.1016 8.234C14.9685 8.12598 14.788 8.06529 14.5998 8.06529H10.3411ZM10.3411 11.5215C10.1529 11.5215 9.97232 11.5822 9.83921 11.6902C9.7061 11.7982 9.63132 11.9447 9.63132 12.0975C9.63132 12.2503 9.7061 12.3968 9.83921 12.5048C9.97232 12.6128 10.1529 12.6735 10.3411 12.6735H11.7606C11.9489 12.6735 12.1294 12.6128 12.2625 12.5048C12.3956 12.3968 12.4704 12.2503 12.4704 12.0975C12.4704 11.9447 12.3956 11.7982 12.2625 11.6902C12.1294 11.5822 11.9489 11.5215 11.7606 11.5215H10.3411Z" fill="black"/>
</svg>
