<svg width="24" height="24" viewBox="0 0 24 24" fill="none" xmlns="http://www.w3.org/2000/svg">
<path d="M12 24C5.38293 24 0 18.6171 0 12C0 5.38293 5.38293 0 12 0C18.6171 0 24 5.38293 24 12C24 18.6171 18.6171 24 12 24ZM12 1.5C6.21002 1.5 1.5 6.21002 1.5 12C1.5 17.79 6.21002 22.5 12 22.5C17.79 22.5 22.5 17.79 22.5 12C22.5 6.21002 17.79 1.5 12 1.5Z" fill="#008F02"/>
<path d="M18.7952 7.19943C18.5153 6.77097 17.7734 6.73409 17.5 6.99999L9.4188 14.5C9.4188 14.5 6.46855 11.6305 6.19519 11.3646C5.92184 11.0987 5.34914 11.1858 4.99985 11.5C4.5073 11.943 4.93186 12.918 5.20524 13.1839L8.92382 16.8007C9.1971 17.0665 9.64061 17.0664 9.91378 16.8007L18.7952 8.16229C19.0686 7.89642 19.0008 7.51425 18.7952 7.19943Z" fill="#008F02"/>
</svg>
